%TF.GenerationSoftware,KiCad,Pcbnew,(5.1.9)-1*%
%TF.CreationDate,2021-03-07T20:13:41+01:00*%
%TF.ProjectId,FunctionGeneratorDDS,46756e63-7469-46f6-9e47-656e65726174,rev?*%
%TF.SameCoordinates,Original*%
%TF.FileFunction,Copper,L1,Top*%
%TF.FilePolarity,Positive*%
%FSLAX46Y46*%
G04 Gerber Fmt 4.6, Leading zero omitted, Abs format (unit mm)*
G04 Created by KiCad (PCBNEW (5.1.9)-1) date 2021-03-07 20:13:41*
%MOMM*%
%LPD*%
G01*
G04 APERTURE LIST*
%TA.AperFunction,ComponentPad*%
%ADD10R,1.500000X1.500000*%
%TD*%
%TA.AperFunction,ComponentPad*%
%ADD11C,1.500000*%
%TD*%
%TA.AperFunction,ComponentPad*%
%ADD12O,1.700000X1.700000*%
%TD*%
%TA.AperFunction,ComponentPad*%
%ADD13R,1.700000X1.700000*%
%TD*%
%TA.AperFunction,ComponentPad*%
%ADD14C,2.000000*%
%TD*%
%TA.AperFunction,ComponentPad*%
%ADD15O,2.400000X1.600000*%
%TD*%
%TA.AperFunction,ComponentPad*%
%ADD16R,2.400000X1.600000*%
%TD*%
%TA.AperFunction,ComponentPad*%
%ADD17C,1.800000*%
%TD*%
%TA.AperFunction,ComponentPad*%
%ADD18R,1.524000X1.524000*%
%TD*%
%TA.AperFunction,ComponentPad*%
%ADD19O,1.905000X2.000000*%
%TD*%
%TA.AperFunction,ComponentPad*%
%ADD20R,1.905000X2.000000*%
%TD*%
%TA.AperFunction,ComponentPad*%
%ADD21C,1.440000*%
%TD*%
%TA.AperFunction,ComponentPad*%
%ADD22C,3.500000*%
%TD*%
%TA.AperFunction,ComponentPad*%
%ADD23R,4.500000X6.000000*%
%TD*%
%TA.AperFunction,ComponentPad*%
%ADD24R,6.000000X4.500000*%
%TD*%
%TA.AperFunction,ComponentPad*%
%ADD25C,1.600000*%
%TD*%
%TA.AperFunction,ComponentPad*%
%ADD26R,1.600000X1.600000*%
%TD*%
%TA.AperFunction,ViaPad*%
%ADD27C,2.000000*%
%TD*%
%TA.AperFunction,Conductor*%
%ADD28C,1.000000*%
%TD*%
G04 APERTURE END LIST*
D10*
%TO.P,U7,1*%
%TO.N,Net-(U5-Pad16)*%
X140167360Y-63294260D03*
D11*
%TO.P,U7,3*%
%TO.N,GND*%
X135087360Y-63294260D03*
%TO.P,U7,2*%
%TO.N,Net-(C10-Pad1)*%
X137627360Y-63294260D03*
%TD*%
D12*
%TO.P,D1,2*%
%TO.N,Net-(C1-Pad1)*%
X85758020Y-70672960D03*
D13*
%TO.P,D1,1*%
%TO.N,Net-(D1-Pad1)*%
X85758020Y-73212960D03*
%TD*%
D14*
%TO.P,F1,2*%
%TO.N,Net-(F1-Pad2)*%
X59776360Y-78572520D03*
%TO.P,F1,1*%
%TO.N,GND*%
X64856360Y-78582520D03*
%TD*%
D15*
%TO.P,U6,8*%
%TO.N,Net-(U6-Pad8)*%
X111135160Y-118630700D03*
%TO.P,U6,4*%
%TO.N,Net-(C8-Pad2)*%
X103515160Y-126250700D03*
%TO.P,U6,7*%
%TO.N,Net-(C2-Pad1)*%
X111135160Y-121170700D03*
%TO.P,U6,3*%
%TO.N,Net-(RV2-Pad2)*%
X103515160Y-123710700D03*
%TO.P,U6,6*%
%TO.N,Net-(J3-Pad1)*%
X111135160Y-123710700D03*
%TO.P,U6,2*%
%TO.N,Net-(RV1-Pad2)*%
X103515160Y-121170700D03*
%TO.P,U6,5*%
%TO.N,Net-(U6-Pad5)*%
X111135160Y-126250700D03*
D16*
%TO.P,U6,1*%
%TO.N,Net-(U6-Pad1)*%
X103515160Y-118630700D03*
%TD*%
D17*
%TO.P,U5,30*%
%TO.N,Net-(U5-Pad30)*%
X141185900Y-74378820D03*
%TO.P,U5,29*%
%TO.N,Net-(U5-Pad29)*%
X141185900Y-76918820D03*
%TO.P,U5,28*%
%TO.N,Net-(U5-Pad28)*%
X141185900Y-79458820D03*
%TO.P,U5,27*%
%TO.N,Net-(U5-Pad27)*%
X141185900Y-81998820D03*
%TO.P,U5,26*%
%TO.N,Net-(U5-Pad26)*%
X141185900Y-84538820D03*
%TO.P,U5,25*%
%TO.N,Net-(J5-Pad5)*%
X141185900Y-87078820D03*
%TO.P,U5,24*%
%TO.N,Net-(J5-Pad4)*%
X141185900Y-89618820D03*
%TO.P,U5,23*%
%TO.N,Net-(J5-Pad3)*%
X141185900Y-92158820D03*
%TO.P,U5,22*%
%TO.N,Net-(U5-Pad22)*%
X141185900Y-94698820D03*
%TO.P,U5,21*%
%TO.N,Net-(U5-Pad21)*%
X141185900Y-97238820D03*
%TO.P,U5,20*%
%TO.N,Net-(U5-Pad20)*%
X141185900Y-99778820D03*
%TO.P,U5,19*%
%TO.N,Net-(U5-Pad19)*%
X141185900Y-102318820D03*
%TO.P,U5,18*%
%TO.N,Net-(U5-Pad18)*%
X141185900Y-104858820D03*
%TO.P,U5,17*%
%TO.N,Net-(U5-Pad17)*%
X141185900Y-107398820D03*
%TO.P,U5,16*%
%TO.N,Net-(U5-Pad16)*%
X141185900Y-109938820D03*
%TO.P,U5,15*%
%TO.N,Net-(J6-Pad3)*%
X115785900Y-109938820D03*
%TO.P,U5,14*%
%TO.N,Net-(J4-Pad3)*%
X115785900Y-107398820D03*
%TO.P,U5,13*%
%TO.N,Net-(U5-Pad13)*%
X115785900Y-104858820D03*
%TO.P,U5,12*%
%TO.N,Net-(U5-Pad12)*%
X115785900Y-102318820D03*
%TO.P,U5,11*%
%TO.N,Net-(J4-Pad4)*%
X115785900Y-99778820D03*
%TO.P,U5,10*%
%TO.N,Net-(U5-Pad10)*%
X115785900Y-97238820D03*
%TO.P,U5,9*%
%TO.N,Net-(J6-Pad4)*%
X115785900Y-94698820D03*
%TO.P,U5,8*%
%TO.N,Net-(J6-Pad5)*%
X115785900Y-92158820D03*
%TO.P,U5,7*%
%TO.N,Net-(U5-Pad7)*%
X115785900Y-89618820D03*
%TO.P,U5,6*%
%TO.N,Net-(U5-Pad6)*%
X115785900Y-87078820D03*
%TO.P,U5,5*%
%TO.N,Net-(U5-Pad5)*%
X115785900Y-84538820D03*
%TO.P,U5,4*%
%TO.N,Net-(U5-Pad4)*%
X115785900Y-81998820D03*
%TO.P,U5,3*%
%TO.N,Net-(U5-Pad3)*%
X115785900Y-79458820D03*
%TO.P,U5,2*%
%TO.N,GND*%
X115785900Y-76918820D03*
D18*
%TO.P,U5,1*%
%TO.N,Net-(C10-Pad1)*%
X115785900Y-74378820D03*
%TD*%
D19*
%TO.P,U4,3*%
%TO.N,Net-(C8-Pad2)*%
X75895200Y-123131580D03*
%TO.P,U4,2*%
%TO.N,-15V*%
X78435200Y-123131580D03*
D20*
%TO.P,U4,1*%
%TO.N,GND*%
X80975200Y-123131580D03*
%TD*%
D19*
%TO.P,U3,3*%
%TO.N,Net-(C2-Pad1)*%
X79804260Y-100096320D03*
%TO.P,U3,2*%
%TO.N,GND*%
X77264260Y-100096320D03*
D20*
%TO.P,U3,1*%
%TO.N,+15V*%
X74724260Y-100096320D03*
%TD*%
D19*
%TO.P,U2,3*%
%TO.N,Net-(C1-Pad1)*%
X79121000Y-66626740D03*
%TO.P,U2,2*%
%TO.N,GND*%
X76581000Y-66626740D03*
D20*
%TO.P,U2,1*%
%TO.N,Net-(C2-Pad1)*%
X74041000Y-66626740D03*
%TD*%
D12*
%TO.P,RV3,3*%
%TO.N,Net-(J3-Pad1)*%
X95470980Y-112229900D03*
%TO.P,RV3,2*%
X92930980Y-112229900D03*
D13*
%TO.P,RV3,1*%
%TO.N,Net-(RV1-Pad2)*%
X90390980Y-112229900D03*
%TD*%
D12*
%TO.P,RV2,3*%
%TO.N,Net-(C8-Pad2)*%
X105031540Y-132631180D03*
%TO.P,RV2,2*%
%TO.N,Net-(RV2-Pad2)*%
X107571540Y-132631180D03*
D13*
%TO.P,RV2,1*%
%TO.N,Net-(C2-Pad1)*%
X110111540Y-132631180D03*
%TD*%
D21*
%TO.P,RV1,3*%
%TO.N,Net-(RV1-Pad2)*%
X90345260Y-106558080D03*
%TO.P,RV1,2*%
X92885260Y-106558080D03*
%TO.P,RV1,1*%
%TO.N,Net-(J6-Pad7)*%
X95425260Y-106558080D03*
%TD*%
D12*
%TO.P,J6,7*%
%TO.N,Net-(J6-Pad7)*%
X91028520Y-79420720D03*
%TO.P,J6,6*%
%TO.N,Net-(J6-Pad6)*%
X91028520Y-81960720D03*
%TO.P,J6,5*%
%TO.N,Net-(J6-Pad5)*%
X91028520Y-84500720D03*
%TO.P,J6,4*%
%TO.N,Net-(J6-Pad4)*%
X91028520Y-87040720D03*
%TO.P,J6,3*%
%TO.N,Net-(J6-Pad3)*%
X91028520Y-89580720D03*
%TO.P,J6,2*%
%TO.N,GND*%
X91028520Y-92120720D03*
D13*
%TO.P,J6,1*%
%TO.N,Net-(C10-Pad1)*%
X91028520Y-94660720D03*
%TD*%
D12*
%TO.P,J5,5*%
%TO.N,Net-(J5-Pad5)*%
X140942060Y-131752340D03*
%TO.P,J5,4*%
%TO.N,Net-(J5-Pad4)*%
X140942060Y-129212340D03*
%TO.P,J5,3*%
%TO.N,Net-(J5-Pad3)*%
X140942060Y-126672340D03*
%TO.P,J5,2*%
%TO.N,Net-(C10-Pad1)*%
X140942060Y-124132340D03*
D13*
%TO.P,J5,1*%
%TO.N,GND*%
X140942060Y-121592340D03*
%TD*%
D12*
%TO.P,J4,4*%
%TO.N,Net-(J4-Pad4)*%
X108866940Y-104096820D03*
%TO.P,J4,3*%
%TO.N,Net-(J4-Pad3)*%
X106326940Y-104096820D03*
%TO.P,J4,2*%
%TO.N,Net-(C10-Pad1)*%
X103786940Y-104096820D03*
D13*
%TO.P,J4,1*%
%TO.N,GND*%
X101246940Y-104096820D03*
%TD*%
D22*
%TO.P,J3,2*%
%TO.N,GND*%
X125749060Y-126977140D03*
D23*
%TO.P,J3,1*%
%TO.N,Net-(J3-Pad1)*%
X120749060Y-126977140D03*
%TD*%
D22*
%TO.P,J2,2*%
%TO.N,Net-(F1-Pad2)*%
X62613540Y-66592440D03*
D24*
%TO.P,J2,1*%
%TO.N,Net-(J2-Pad1)*%
X62613540Y-71592440D03*
%TD*%
D22*
%TO.P,J1,2*%
%TO.N,-15V*%
X62692280Y-99612440D03*
D24*
%TO.P,J1,1*%
%TO.N,+15V*%
X62692280Y-104612440D03*
%TD*%
D25*
%TO.P,C8,2*%
%TO.N,Net-(C8-Pad2)*%
X77372840Y-131721860D03*
D26*
%TO.P,C8,1*%
%TO.N,GND*%
X79872840Y-131721860D03*
%TD*%
D25*
%TO.P,C7,2*%
%TO.N,GND*%
X81132680Y-109612440D03*
%TO.P,C7,1*%
%TO.N,Net-(C2-Pad1)*%
X81132680Y-104612440D03*
%TD*%
%TO.P,C6,2*%
%TO.N,GND*%
X80424020Y-76434960D03*
%TO.P,C6,1*%
%TO.N,Net-(C1-Pad1)*%
X80424020Y-71434960D03*
%TD*%
%TO.P,C5,2*%
%TO.N,GND*%
X99722940Y-73086600D03*
D26*
%TO.P,C5,1*%
%TO.N,Net-(C10-Pad1)*%
X99722940Y-70586600D03*
%TD*%
D25*
%TO.P,C4,2*%
%TO.N,-15V*%
X76819120Y-117457220D03*
D26*
%TO.P,C4,1*%
%TO.N,GND*%
X79319120Y-117457220D03*
%TD*%
D25*
%TO.P,C3,2*%
%TO.N,GND*%
X77384920Y-104691180D03*
%TO.P,C3,1*%
%TO.N,+15V*%
X72384920Y-104691180D03*
%TD*%
%TO.P,C2,2*%
%TO.N,GND*%
X76676260Y-71513700D03*
%TO.P,C2,1*%
%TO.N,Net-(C2-Pad1)*%
X71676260Y-71513700D03*
%TD*%
%TO.P,C1,2*%
%TO.N,GND*%
X99722940Y-64538220D03*
D26*
%TO.P,C1,1*%
%TO.N,Net-(C1-Pad1)*%
X99722940Y-67038220D03*
%TD*%
D27*
%TO.N,GND*%
X99712780Y-82235040D03*
X99509580Y-100015040D03*
%TO.N,Net-(C10-Pad1)*%
X94421960Y-70586600D03*
X94482920Y-89565480D03*
%TO.N,Net-(C2-Pad1)*%
X89303860Y-131838700D03*
X96573340Y-132877560D03*
%TD*%
D28*
%TO.N,GND*%
X99712780Y-99811840D02*
X99509580Y-100015040D01*
X99712780Y-82235040D02*
X99712780Y-99811840D01*
%TO.N,Net-(C10-Pad1)*%
X94421960Y-89504520D02*
X94482920Y-89565480D01*
X94421960Y-70586600D02*
X94421960Y-89504520D01*
%TO.N,Net-(C2-Pad1)*%
X95534480Y-131838700D02*
X96573340Y-132877560D01*
X89303860Y-131838700D02*
X95534480Y-131838700D01*
%TD*%
M02*
