%TF.GenerationSoftware,KiCad,Pcbnew,(5.1.10)-1*%
%TF.CreationDate,2021-09-14T14:55:47+02:00*%
%TF.ProjectId,FunctionGeneratorDDS,46756e63-7469-46f6-9e47-656e65726174,rev?*%
%TF.SameCoordinates,Original*%
%TF.FileFunction,Legend,Bot*%
%TF.FilePolarity,Positive*%
%FSLAX46Y46*%
G04 Gerber Fmt 4.6, Leading zero omitted, Abs format (unit mm)*
G04 Created by KiCad (PCBNEW (5.1.10)-1) date 2021-09-14 14:55:47*
%MOMM*%
%LPD*%
G01*
G04 APERTURE LIST*
%ADD10C,0.120000*%
%ADD11C,0.150000*%
G04 APERTURE END LIST*
D10*
%TO.C,C12*%
X93791100Y-93354792D02*
X93791100Y-92832288D01*
X95261100Y-93354792D02*
X95261100Y-92832288D01*
%TO.C,C11*%
X102930592Y-100386820D02*
X102408088Y-100386820D01*
X102930592Y-98916820D02*
X102408088Y-98916820D01*
%TO.C,C10*%
X119660340Y-75359628D02*
X119660340Y-75882132D01*
X118190340Y-75359628D02*
X118190340Y-75882132D01*
%TO.C,C9*%
X133725552Y-66879140D02*
X133203048Y-66879140D01*
X133725552Y-65409140D02*
X133203048Y-65409140D01*
%TO.C,R1*%
X88797460Y-72510384D02*
X88797460Y-72056256D01*
X90267460Y-72510384D02*
X90267460Y-72056256D01*
%TO.C,U1*%
X102480940Y-73996600D02*
X108490940Y-73996600D01*
X104730940Y-67176600D02*
X108490940Y-67176600D01*
X108490940Y-73996600D02*
X108490940Y-72736600D01*
X108490940Y-67176600D02*
X108490940Y-68436600D01*
%TO.C,C12*%
D11*
X96563242Y-92450682D02*
X96610861Y-92403063D01*
X96658480Y-92260206D01*
X96658480Y-92164968D01*
X96610861Y-92022111D01*
X96515623Y-91926873D01*
X96420385Y-91879254D01*
X96229909Y-91831635D01*
X96087052Y-91831635D01*
X95896576Y-91879254D01*
X95801338Y-91926873D01*
X95706100Y-92022111D01*
X95658480Y-92164968D01*
X95658480Y-92260206D01*
X95706100Y-92403063D01*
X95753719Y-92450682D01*
X96658480Y-93403063D02*
X96658480Y-92831635D01*
X96658480Y-93117349D02*
X95658480Y-93117349D01*
X95801338Y-93022111D01*
X95896576Y-92926873D01*
X95944195Y-92831635D01*
X95753719Y-93784016D02*
X95706100Y-93831635D01*
X95658480Y-93926873D01*
X95658480Y-94164968D01*
X95706100Y-94260206D01*
X95753719Y-94307825D01*
X95848957Y-94355444D01*
X95944195Y-94355444D01*
X96087052Y-94307825D01*
X96658480Y-93736397D01*
X96658480Y-94355444D01*
%TO.C,C11*%
X103312197Y-98328962D02*
X103359816Y-98376581D01*
X103502673Y-98424200D01*
X103597911Y-98424200D01*
X103740768Y-98376581D01*
X103836006Y-98281343D01*
X103883625Y-98186105D01*
X103931244Y-97995629D01*
X103931244Y-97852772D01*
X103883625Y-97662296D01*
X103836006Y-97567058D01*
X103740768Y-97471820D01*
X103597911Y-97424200D01*
X103502673Y-97424200D01*
X103359816Y-97471820D01*
X103312197Y-97519439D01*
X102359816Y-98424200D02*
X102931244Y-98424200D01*
X102645530Y-98424200D02*
X102645530Y-97424200D01*
X102740768Y-97567058D01*
X102836006Y-97662296D01*
X102931244Y-97709915D01*
X101407435Y-98424200D02*
X101978863Y-98424200D01*
X101693149Y-98424200D02*
X101693149Y-97424200D01*
X101788387Y-97567058D01*
X101883625Y-97662296D01*
X101978863Y-97709915D01*
%TO.C,C10*%
X117602482Y-74978022D02*
X117650101Y-74930403D01*
X117697720Y-74787546D01*
X117697720Y-74692308D01*
X117650101Y-74549451D01*
X117554863Y-74454213D01*
X117459625Y-74406594D01*
X117269149Y-74358975D01*
X117126292Y-74358975D01*
X116935816Y-74406594D01*
X116840578Y-74454213D01*
X116745340Y-74549451D01*
X116697720Y-74692308D01*
X116697720Y-74787546D01*
X116745340Y-74930403D01*
X116792959Y-74978022D01*
X117697720Y-75930403D02*
X117697720Y-75358975D01*
X117697720Y-75644689D02*
X116697720Y-75644689D01*
X116840578Y-75549451D01*
X116935816Y-75454213D01*
X116983435Y-75358975D01*
X116697720Y-76549451D02*
X116697720Y-76644689D01*
X116745340Y-76739927D01*
X116792959Y-76787546D01*
X116888197Y-76835165D01*
X117078673Y-76882784D01*
X117316768Y-76882784D01*
X117507244Y-76835165D01*
X117602482Y-76787546D01*
X117650101Y-76739927D01*
X117697720Y-76644689D01*
X117697720Y-76549451D01*
X117650101Y-76454213D01*
X117602482Y-76406594D01*
X117507244Y-76358975D01*
X117316768Y-76311356D01*
X117078673Y-76311356D01*
X116888197Y-76358975D01*
X116792959Y-76406594D01*
X116745340Y-76454213D01*
X116697720Y-76549451D01*
%TO.C,C9*%
X133630966Y-64821282D02*
X133678585Y-64868901D01*
X133821442Y-64916520D01*
X133916680Y-64916520D01*
X134059538Y-64868901D01*
X134154776Y-64773663D01*
X134202395Y-64678425D01*
X134250014Y-64487949D01*
X134250014Y-64345092D01*
X134202395Y-64154616D01*
X134154776Y-64059378D01*
X134059538Y-63964140D01*
X133916680Y-63916520D01*
X133821442Y-63916520D01*
X133678585Y-63964140D01*
X133630966Y-64011759D01*
X133154776Y-64916520D02*
X132964300Y-64916520D01*
X132869061Y-64868901D01*
X132821442Y-64821282D01*
X132726204Y-64678425D01*
X132678585Y-64487949D01*
X132678585Y-64106997D01*
X132726204Y-64011759D01*
X132773823Y-63964140D01*
X132869061Y-63916520D01*
X133059538Y-63916520D01*
X133154776Y-63964140D01*
X133202395Y-64011759D01*
X133250014Y-64106997D01*
X133250014Y-64345092D01*
X133202395Y-64440330D01*
X133154776Y-64487949D01*
X133059538Y-64535568D01*
X132869061Y-64535568D01*
X132773823Y-64487949D01*
X132726204Y-64440330D01*
X132678585Y-64345092D01*
%TO.C,R1*%
X91634840Y-72116653D02*
X91158650Y-71783320D01*
X91634840Y-71545224D02*
X90634840Y-71545224D01*
X90634840Y-71926177D01*
X90682460Y-72021415D01*
X90730079Y-72069034D01*
X90825317Y-72116653D01*
X90968174Y-72116653D01*
X91063412Y-72069034D01*
X91111031Y-72021415D01*
X91158650Y-71926177D01*
X91158650Y-71545224D01*
X91634840Y-73069034D02*
X91634840Y-72497605D01*
X91634840Y-72783320D02*
X90634840Y-72783320D01*
X90777698Y-72688081D01*
X90872936Y-72592843D01*
X90920555Y-72497605D01*
%TO.C,U1*%
X107342844Y-74538980D02*
X107342844Y-75348504D01*
X107295225Y-75443742D01*
X107247606Y-75491361D01*
X107152368Y-75538980D01*
X106961892Y-75538980D01*
X106866654Y-75491361D01*
X106819035Y-75443742D01*
X106771416Y-75348504D01*
X106771416Y-74538980D01*
X105771416Y-75538980D02*
X106342844Y-75538980D01*
X106057130Y-75538980D02*
X106057130Y-74538980D01*
X106152368Y-74681838D01*
X106247606Y-74777076D01*
X106342844Y-74824695D01*
%TD*%
M02*
