M48
; DRILL file {KiCad (5.1.9)-1} date 03/07/21 20:13:36
; FORMAT={-:-/ absolute / inch / decimal}
; #@! TF.CreationDate,2021-03-07T20:13:36+01:00
; #@! TF.GenerationSoftware,Kicad,Pcbnew,(5.1.9)-1
; #@! TF.FileFunction,Plated,1,2,PTH
FMAT,2
INCH
T1C0.0315
T2C0.0394
T3C0.0433
T4C0.0512
%
G90
G05
T1
X2.8219Y-2.8155
X2.8498Y-4.1217
X3.0188Y-2.8155
X3.0244Y-4.6243
X3.0462Y-5.1859
X3.0467Y-4.1217
X3.1228Y-4.6243
X3.1446Y-5.1859
X3.1663Y-2.8124
X3.1663Y-3.0093
X3.1942Y-4.1186
X3.1942Y-4.3155
X3.5159Y-5.1905
X3.5569Y-4.1952
X3.6569Y-4.1952
X3.7174Y-2.779
X3.7198Y-3.5262
X3.7569Y-4.1952
X3.8021Y-5.2314
X3.9177Y-3.9376
X3.9257Y-3.2376
X3.9261Y-2.5409
X3.9261Y-2.6393
X3.9261Y-2.779
X3.9261Y-2.8774
X4.0754Y-4.6705
X4.0754Y-4.7705
X4.0754Y-4.8705
X4.0754Y-4.9705
X4.3754Y-4.6705
X4.3754Y-4.7705
X4.3754Y-4.8705
X4.3754Y-4.9705
X4.5585Y-2.9283
X4.5585Y-3.0283
X4.5585Y-3.1283
X4.5585Y-3.2283
X4.5585Y-3.3283
X4.5585Y-3.4283
X4.5585Y-3.5283
X4.5585Y-3.6283
X4.5585Y-3.7283
X4.5585Y-3.8283
X4.5585Y-3.9283
X4.5585Y-4.0283
X4.5585Y-4.1283
X4.5585Y-4.2283
X4.5585Y-4.3283
X5.3184Y-2.4919
X5.4184Y-2.4919
X5.5184Y-2.4919
X5.5585Y-2.9283
X5.5585Y-3.0283
X5.5585Y-3.1283
X5.5585Y-3.2283
X5.5585Y-3.3283
X5.5585Y-3.4283
X5.5585Y-3.5283
X5.5585Y-3.6283
X5.5585Y-3.7283
X5.5585Y-3.8283
X5.5585Y-3.9283
X5.5585Y-4.0283
X5.5585Y-4.1283
X5.5585Y-4.2283
X5.5585Y-4.3283
T2
X2.3534Y-3.0934
X2.5534Y-3.0938
X3.3763Y-2.7824
X3.3763Y-2.8824
X3.5587Y-4.4185
X3.5838Y-3.1268
X3.5838Y-3.2268
X3.5838Y-3.3268
X3.5838Y-3.4268
X3.5838Y-3.5268
X3.5838Y-3.6268
X3.5838Y-3.7268
X3.6587Y-4.4185
X3.7587Y-4.4185
X3.9861Y-4.0983
X4.0861Y-4.0983
X4.1351Y-5.2217
X4.1861Y-4.0983
X4.2351Y-5.2217
X4.2861Y-4.0983
X4.3351Y-5.2217
X5.5489Y-4.7871
X5.5489Y-4.8871
X5.5489Y-4.9871
X5.5489Y-5.0871
X5.5489Y-5.1871
T3
X2.915Y-2.6231
X2.9419Y-3.9408
X2.988Y-4.8477
X3.015Y-2.6231
X3.0419Y-3.9408
X3.088Y-4.8477
X3.115Y-2.6231
X3.1419Y-3.9408
X3.188Y-4.8477
T4
X2.4651Y-2.6217
X2.4651Y-2.8186
X2.4682Y-3.9217
X2.4682Y-4.1186
X4.7539Y-4.9991
X4.9508Y-4.9991
T0
M30
