%TF.GenerationSoftware,KiCad,Pcbnew,(5.1.10)-1*%
%TF.CreationDate,2021-09-14T14:55:47+02:00*%
%TF.ProjectId,FunctionGeneratorDDS,46756e63-7469-46f6-9e47-656e65726174,rev?*%
%TF.SameCoordinates,Original*%
%TF.FileFunction,Soldermask,Top*%
%TF.FilePolarity,Negative*%
%FSLAX46Y46*%
G04 Gerber Fmt 4.6, Leading zero omitted, Abs format (unit mm)*
G04 Created by KiCad (PCBNEW (5.1.10)-1) date 2021-09-14 14:55:47*
%MOMM*%
%LPD*%
G01*
G04 APERTURE LIST*
%ADD10O,2.400000X1.600000*%
%ADD11R,2.400000X1.600000*%
%ADD12O,1.600000X1.600000*%
%ADD13C,1.600000*%
%ADD14R,1.500000X1.500000*%
%ADD15C,1.500000*%
%ADD16O,1.700000X1.700000*%
%ADD17R,1.700000X1.700000*%
%ADD18C,2.000000*%
%ADD19C,3.200000*%
%ADD20C,1.800000*%
%ADD21R,1.524000X1.524000*%
%ADD22O,1.905000X2.000000*%
%ADD23R,1.905000X2.000000*%
%ADD24C,1.440000*%
%ADD25C,3.500000*%
%ADD26R,4.500000X6.000000*%
%ADD27R,6.000000X4.500000*%
%ADD28R,1.600000X1.600000*%
G04 APERTURE END LIST*
D10*
%TO.C,U6*%
X110865920Y-118496080D03*
X103245920Y-126116080D03*
X110865920Y-121036080D03*
X103245920Y-123576080D03*
X110865920Y-123576080D03*
X103245920Y-121036080D03*
X110865920Y-126116080D03*
D11*
X103245920Y-118496080D03*
%TD*%
D12*
%TO.C,R3*%
X115251920Y-114792160D03*
D13*
X122871920Y-114792160D03*
%TD*%
D12*
%TO.C,R2*%
X115251920Y-118842160D03*
D13*
X122871920Y-118842160D03*
%TD*%
D14*
%TO.C,U7*%
X140167360Y-63294260D03*
D15*
X135087360Y-63294260D03*
X137627360Y-63294260D03*
%TD*%
D16*
%TO.C,D1*%
X85758020Y-70672960D03*
D17*
X85758020Y-73212960D03*
%TD*%
D18*
%TO.C,F1*%
X59776360Y-78572520D03*
X64856360Y-78582520D03*
%TD*%
D19*
%TO.C,REF\u002A\u002A*%
X134170420Y-128549400D03*
%TD*%
%TO.C,REF\u002A\u002A*%
X62875160Y-128549400D03*
%TD*%
%TO.C,REF\u002A\u002A*%
X62644020Y-85354160D03*
%TD*%
D20*
%TO.C,U5*%
X141185900Y-74378820D03*
X141185900Y-76918820D03*
X141185900Y-79458820D03*
X141185900Y-81998820D03*
X141185900Y-84538820D03*
X141185900Y-87078820D03*
X141185900Y-89618820D03*
X141185900Y-92158820D03*
X141185900Y-94698820D03*
X141185900Y-97238820D03*
X141185900Y-99778820D03*
X141185900Y-102318820D03*
X141185900Y-104858820D03*
X141185900Y-107398820D03*
X141185900Y-109938820D03*
X115785900Y-109938820D03*
X115785900Y-107398820D03*
X115785900Y-104858820D03*
X115785900Y-102318820D03*
X115785900Y-99778820D03*
X115785900Y-97238820D03*
X115785900Y-94698820D03*
X115785900Y-92158820D03*
X115785900Y-89618820D03*
X115785900Y-87078820D03*
X115785900Y-84538820D03*
X115785900Y-81998820D03*
X115785900Y-79458820D03*
X115785900Y-76918820D03*
D21*
X115785900Y-74378820D03*
%TD*%
D22*
%TO.C,U4*%
X75895200Y-123131580D03*
X78435200Y-123131580D03*
D23*
X80975200Y-123131580D03*
%TD*%
D22*
%TO.C,U3*%
X79804260Y-100096320D03*
X77264260Y-100096320D03*
D23*
X74724260Y-100096320D03*
%TD*%
D22*
%TO.C,U2*%
X79121000Y-66626740D03*
X76581000Y-66626740D03*
D23*
X74041000Y-66626740D03*
%TD*%
D16*
%TO.C,RV3*%
X95470980Y-112229900D03*
X92930980Y-112229900D03*
D17*
X90390980Y-112229900D03*
%TD*%
D16*
%TO.C,RV2*%
X105031540Y-132631180D03*
X107571540Y-132631180D03*
D17*
X110111540Y-132631180D03*
%TD*%
D24*
%TO.C,RV1*%
X90345260Y-106558080D03*
X92885260Y-106558080D03*
X95425260Y-106558080D03*
%TD*%
D16*
%TO.C,J6*%
X91028520Y-79420720D03*
X91028520Y-81960720D03*
X91028520Y-84500720D03*
X91028520Y-87040720D03*
X91028520Y-89580720D03*
X91028520Y-92120720D03*
D17*
X91028520Y-94660720D03*
%TD*%
D16*
%TO.C,J5*%
X140942060Y-131752340D03*
X140942060Y-129212340D03*
X140942060Y-126672340D03*
X140942060Y-124132340D03*
D17*
X140942060Y-121592340D03*
%TD*%
D16*
%TO.C,J4*%
X108866940Y-104096820D03*
X106326940Y-104096820D03*
X103786940Y-104096820D03*
D17*
X101246940Y-104096820D03*
%TD*%
D25*
%TO.C,J3*%
X125749060Y-126977140D03*
D26*
X120749060Y-126977140D03*
%TD*%
D25*
%TO.C,J2*%
X62613540Y-66592440D03*
D27*
X62613540Y-71592440D03*
%TD*%
D25*
%TO.C,J1*%
X62692280Y-99612440D03*
D27*
X62692280Y-104612440D03*
%TD*%
D13*
%TO.C,C8*%
X77372840Y-131721860D03*
D28*
X79872840Y-131721860D03*
%TD*%
D13*
%TO.C,C7*%
X81132680Y-109612440D03*
X81132680Y-104612440D03*
%TD*%
%TO.C,C6*%
X80424020Y-76434960D03*
X80424020Y-71434960D03*
%TD*%
%TO.C,C5*%
X99722940Y-73086600D03*
D28*
X99722940Y-70586600D03*
%TD*%
D13*
%TO.C,C4*%
X76819120Y-117457220D03*
D28*
X79319120Y-117457220D03*
%TD*%
D13*
%TO.C,C3*%
X77384920Y-104691180D03*
X72384920Y-104691180D03*
%TD*%
%TO.C,C2*%
X76676260Y-71513700D03*
X71676260Y-71513700D03*
%TD*%
%TO.C,C1*%
X99722940Y-64538220D03*
D28*
X99722940Y-67038220D03*
%TD*%
M02*
