%TF.GenerationSoftware,KiCad,Pcbnew,(5.1.9)-1*%
%TF.CreationDate,2021-03-07T20:13:41+01:00*%
%TF.ProjectId,FunctionGeneratorDDS,46756e63-7469-46f6-9e47-656e65726174,rev?*%
%TF.SameCoordinates,Original*%
%TF.FileFunction,Paste,Bot*%
%TF.FilePolarity,Positive*%
%FSLAX46Y46*%
G04 Gerber Fmt 4.6, Leading zero omitted, Abs format (unit mm)*
G04 Created by KiCad (PCBNEW (5.1.9)-1) date 2021-03-07 20:13:41*
%MOMM*%
%LPD*%
G01*
G04 APERTURE LIST*
%ADD10R,2.000000X1.500000*%
%ADD11R,2.000000X3.800000*%
G04 APERTURE END LIST*
%TO.C,C12*%
G36*
G01*
X95001100Y-92643540D02*
X94051100Y-92643540D01*
G75*
G02*
X93801100Y-92393540I0J250000D01*
G01*
X93801100Y-91718540D01*
G75*
G02*
X94051100Y-91468540I250000J0D01*
G01*
X95001100Y-91468540D01*
G75*
G02*
X95251100Y-91718540I0J-250000D01*
G01*
X95251100Y-92393540D01*
G75*
G02*
X95001100Y-92643540I-250000J0D01*
G01*
G37*
G36*
G01*
X95001100Y-94718540D02*
X94051100Y-94718540D01*
G75*
G02*
X93801100Y-94468540I0J250000D01*
G01*
X93801100Y-93793540D01*
G75*
G02*
X94051100Y-93543540I250000J0D01*
G01*
X95001100Y-93543540D01*
G75*
G02*
X95251100Y-93793540I0J-250000D01*
G01*
X95251100Y-94468540D01*
G75*
G02*
X95001100Y-94718540I-250000J0D01*
G01*
G37*
%TD*%
%TO.C,C11*%
G36*
G01*
X102219340Y-99176820D02*
X102219340Y-100126820D01*
G75*
G02*
X101969340Y-100376820I-250000J0D01*
G01*
X101294340Y-100376820D01*
G75*
G02*
X101044340Y-100126820I0J250000D01*
G01*
X101044340Y-99176820D01*
G75*
G02*
X101294340Y-98926820I250000J0D01*
G01*
X101969340Y-98926820D01*
G75*
G02*
X102219340Y-99176820I0J-250000D01*
G01*
G37*
G36*
G01*
X104294340Y-99176820D02*
X104294340Y-100126820D01*
G75*
G02*
X104044340Y-100376820I-250000J0D01*
G01*
X103369340Y-100376820D01*
G75*
G02*
X103119340Y-100126820I0J250000D01*
G01*
X103119340Y-99176820D01*
G75*
G02*
X103369340Y-98926820I250000J0D01*
G01*
X104044340Y-98926820D01*
G75*
G02*
X104294340Y-99176820I0J-250000D01*
G01*
G37*
%TD*%
%TO.C,C10*%
G36*
G01*
X118450340Y-76070880D02*
X119400340Y-76070880D01*
G75*
G02*
X119650340Y-76320880I0J-250000D01*
G01*
X119650340Y-76995880D01*
G75*
G02*
X119400340Y-77245880I-250000J0D01*
G01*
X118450340Y-77245880D01*
G75*
G02*
X118200340Y-76995880I0J250000D01*
G01*
X118200340Y-76320880D01*
G75*
G02*
X118450340Y-76070880I250000J0D01*
G01*
G37*
G36*
G01*
X118450340Y-73995880D02*
X119400340Y-73995880D01*
G75*
G02*
X119650340Y-74245880I0J-250000D01*
G01*
X119650340Y-74920880D01*
G75*
G02*
X119400340Y-75170880I-250000J0D01*
G01*
X118450340Y-75170880D01*
G75*
G02*
X118200340Y-74920880I0J250000D01*
G01*
X118200340Y-74245880D01*
G75*
G02*
X118450340Y-73995880I250000J0D01*
G01*
G37*
%TD*%
%TO.C,C9*%
G36*
G01*
X133014300Y-65669140D02*
X133014300Y-66619140D01*
G75*
G02*
X132764300Y-66869140I-250000J0D01*
G01*
X132089300Y-66869140D01*
G75*
G02*
X131839300Y-66619140I0J250000D01*
G01*
X131839300Y-65669140D01*
G75*
G02*
X132089300Y-65419140I250000J0D01*
G01*
X132764300Y-65419140D01*
G75*
G02*
X133014300Y-65669140I0J-250000D01*
G01*
G37*
G36*
G01*
X135089300Y-65669140D02*
X135089300Y-66619140D01*
G75*
G02*
X134839300Y-66869140I-250000J0D01*
G01*
X134164300Y-66869140D01*
G75*
G02*
X133914300Y-66619140I0J250000D01*
G01*
X133914300Y-65669140D01*
G75*
G02*
X134164300Y-65419140I250000J0D01*
G01*
X134839300Y-65419140D01*
G75*
G02*
X135089300Y-65669140I0J-250000D01*
G01*
G37*
%TD*%
%TO.C,R1*%
G36*
G01*
X89982461Y-71883320D02*
X89082459Y-71883320D01*
G75*
G02*
X88832460Y-71633321I0J249999D01*
G01*
X88832460Y-70933319D01*
G75*
G02*
X89082459Y-70683320I249999J0D01*
G01*
X89982461Y-70683320D01*
G75*
G02*
X90232460Y-70933319I0J-249999D01*
G01*
X90232460Y-71633321D01*
G75*
G02*
X89982461Y-71883320I-249999J0D01*
G01*
G37*
G36*
G01*
X89982461Y-73883320D02*
X89082459Y-73883320D01*
G75*
G02*
X88832460Y-73633321I0J249999D01*
G01*
X88832460Y-72933319D01*
G75*
G02*
X89082459Y-72683320I249999J0D01*
G01*
X89982461Y-72683320D01*
G75*
G02*
X90232460Y-72933319I0J-249999D01*
G01*
X90232460Y-73633321D01*
G75*
G02*
X89982461Y-73883320I-249999J0D01*
G01*
G37*
%TD*%
D10*
%TO.C,U1*%
X103430940Y-72886600D03*
X103430940Y-68286600D03*
X103430940Y-70586600D03*
D11*
X109730940Y-70586600D03*
%TD*%
M02*
