%TF.GenerationSoftware,KiCad,Pcbnew,(5.1.9)-1*%
%TF.CreationDate,2021-03-07T20:13:41+01:00*%
%TF.ProjectId,FunctionGeneratorDDS,46756e63-7469-46f6-9e47-656e65726174,rev?*%
%TF.SameCoordinates,Original*%
%TF.FileFunction,Soldermask,Bot*%
%TF.FilePolarity,Negative*%
%FSLAX46Y46*%
G04 Gerber Fmt 4.6, Leading zero omitted, Abs format (unit mm)*
G04 Created by KiCad (PCBNEW (5.1.9)-1) date 2021-03-07 20:13:41*
%MOMM*%
%LPD*%
G01*
G04 APERTURE LIST*
%ADD10R,1.500000X1.500000*%
%ADD11C,1.500000*%
%ADD12O,1.700000X1.700000*%
%ADD13R,1.700000X1.700000*%
%ADD14C,2.000000*%
%ADD15C,3.200000*%
%ADD16O,2.400000X1.600000*%
%ADD17R,2.400000X1.600000*%
%ADD18C,1.800000*%
%ADD19R,1.524000X1.524000*%
%ADD20O,1.905000X2.000000*%
%ADD21R,1.905000X2.000000*%
%ADD22R,2.000000X1.500000*%
%ADD23R,2.000000X3.800000*%
%ADD24C,1.440000*%
%ADD25C,3.500000*%
%ADD26R,4.500000X6.000000*%
%ADD27R,6.000000X4.500000*%
%ADD28C,1.600000*%
%ADD29R,1.600000X1.600000*%
G04 APERTURE END LIST*
%TO.C,C12*%
G36*
G01*
X95001100Y-92643540D02*
X94051100Y-92643540D01*
G75*
G02*
X93801100Y-92393540I0J250000D01*
G01*
X93801100Y-91718540D01*
G75*
G02*
X94051100Y-91468540I250000J0D01*
G01*
X95001100Y-91468540D01*
G75*
G02*
X95251100Y-91718540I0J-250000D01*
G01*
X95251100Y-92393540D01*
G75*
G02*
X95001100Y-92643540I-250000J0D01*
G01*
G37*
G36*
G01*
X95001100Y-94718540D02*
X94051100Y-94718540D01*
G75*
G02*
X93801100Y-94468540I0J250000D01*
G01*
X93801100Y-93793540D01*
G75*
G02*
X94051100Y-93543540I250000J0D01*
G01*
X95001100Y-93543540D01*
G75*
G02*
X95251100Y-93793540I0J-250000D01*
G01*
X95251100Y-94468540D01*
G75*
G02*
X95001100Y-94718540I-250000J0D01*
G01*
G37*
%TD*%
%TO.C,C11*%
G36*
G01*
X102219340Y-99176820D02*
X102219340Y-100126820D01*
G75*
G02*
X101969340Y-100376820I-250000J0D01*
G01*
X101294340Y-100376820D01*
G75*
G02*
X101044340Y-100126820I0J250000D01*
G01*
X101044340Y-99176820D01*
G75*
G02*
X101294340Y-98926820I250000J0D01*
G01*
X101969340Y-98926820D01*
G75*
G02*
X102219340Y-99176820I0J-250000D01*
G01*
G37*
G36*
G01*
X104294340Y-99176820D02*
X104294340Y-100126820D01*
G75*
G02*
X104044340Y-100376820I-250000J0D01*
G01*
X103369340Y-100376820D01*
G75*
G02*
X103119340Y-100126820I0J250000D01*
G01*
X103119340Y-99176820D01*
G75*
G02*
X103369340Y-98926820I250000J0D01*
G01*
X104044340Y-98926820D01*
G75*
G02*
X104294340Y-99176820I0J-250000D01*
G01*
G37*
%TD*%
%TO.C,C10*%
G36*
G01*
X118450340Y-76070880D02*
X119400340Y-76070880D01*
G75*
G02*
X119650340Y-76320880I0J-250000D01*
G01*
X119650340Y-76995880D01*
G75*
G02*
X119400340Y-77245880I-250000J0D01*
G01*
X118450340Y-77245880D01*
G75*
G02*
X118200340Y-76995880I0J250000D01*
G01*
X118200340Y-76320880D01*
G75*
G02*
X118450340Y-76070880I250000J0D01*
G01*
G37*
G36*
G01*
X118450340Y-73995880D02*
X119400340Y-73995880D01*
G75*
G02*
X119650340Y-74245880I0J-250000D01*
G01*
X119650340Y-74920880D01*
G75*
G02*
X119400340Y-75170880I-250000J0D01*
G01*
X118450340Y-75170880D01*
G75*
G02*
X118200340Y-74920880I0J250000D01*
G01*
X118200340Y-74245880D01*
G75*
G02*
X118450340Y-73995880I250000J0D01*
G01*
G37*
%TD*%
%TO.C,C9*%
G36*
G01*
X133014300Y-65669140D02*
X133014300Y-66619140D01*
G75*
G02*
X132764300Y-66869140I-250000J0D01*
G01*
X132089300Y-66869140D01*
G75*
G02*
X131839300Y-66619140I0J250000D01*
G01*
X131839300Y-65669140D01*
G75*
G02*
X132089300Y-65419140I250000J0D01*
G01*
X132764300Y-65419140D01*
G75*
G02*
X133014300Y-65669140I0J-250000D01*
G01*
G37*
G36*
G01*
X135089300Y-65669140D02*
X135089300Y-66619140D01*
G75*
G02*
X134839300Y-66869140I-250000J0D01*
G01*
X134164300Y-66869140D01*
G75*
G02*
X133914300Y-66619140I0J250000D01*
G01*
X133914300Y-65669140D01*
G75*
G02*
X134164300Y-65419140I250000J0D01*
G01*
X134839300Y-65419140D01*
G75*
G02*
X135089300Y-65669140I0J-250000D01*
G01*
G37*
%TD*%
D10*
%TO.C,U7*%
X140167360Y-63294260D03*
D11*
X135087360Y-63294260D03*
X137627360Y-63294260D03*
%TD*%
%TO.C,R1*%
G36*
G01*
X89982461Y-71883320D02*
X89082459Y-71883320D01*
G75*
G02*
X88832460Y-71633321I0J249999D01*
G01*
X88832460Y-70933319D01*
G75*
G02*
X89082459Y-70683320I249999J0D01*
G01*
X89982461Y-70683320D01*
G75*
G02*
X90232460Y-70933319I0J-249999D01*
G01*
X90232460Y-71633321D01*
G75*
G02*
X89982461Y-71883320I-249999J0D01*
G01*
G37*
G36*
G01*
X89982461Y-73883320D02*
X89082459Y-73883320D01*
G75*
G02*
X88832460Y-73633321I0J249999D01*
G01*
X88832460Y-72933319D01*
G75*
G02*
X89082459Y-72683320I249999J0D01*
G01*
X89982461Y-72683320D01*
G75*
G02*
X90232460Y-72933319I0J-249999D01*
G01*
X90232460Y-73633321D01*
G75*
G02*
X89982461Y-73883320I-249999J0D01*
G01*
G37*
%TD*%
D12*
%TO.C,D1*%
X85758020Y-70672960D03*
D13*
X85758020Y-73212960D03*
%TD*%
D14*
%TO.C,F1*%
X59776360Y-78572520D03*
X64856360Y-78582520D03*
%TD*%
D15*
%TO.C,REF\u002A\u002A*%
X134170420Y-128549400D03*
%TD*%
%TO.C,REF\u002A\u002A*%
X62875160Y-128549400D03*
%TD*%
%TO.C,REF\u002A\u002A*%
X62644020Y-85354160D03*
%TD*%
D16*
%TO.C,U6*%
X111135160Y-118630700D03*
X103515160Y-126250700D03*
X111135160Y-121170700D03*
X103515160Y-123710700D03*
X111135160Y-123710700D03*
X103515160Y-121170700D03*
X111135160Y-126250700D03*
D17*
X103515160Y-118630700D03*
%TD*%
D18*
%TO.C,U5*%
X141185900Y-74378820D03*
X141185900Y-76918820D03*
X141185900Y-79458820D03*
X141185900Y-81998820D03*
X141185900Y-84538820D03*
X141185900Y-87078820D03*
X141185900Y-89618820D03*
X141185900Y-92158820D03*
X141185900Y-94698820D03*
X141185900Y-97238820D03*
X141185900Y-99778820D03*
X141185900Y-102318820D03*
X141185900Y-104858820D03*
X141185900Y-107398820D03*
X141185900Y-109938820D03*
X115785900Y-109938820D03*
X115785900Y-107398820D03*
X115785900Y-104858820D03*
X115785900Y-102318820D03*
X115785900Y-99778820D03*
X115785900Y-97238820D03*
X115785900Y-94698820D03*
X115785900Y-92158820D03*
X115785900Y-89618820D03*
X115785900Y-87078820D03*
X115785900Y-84538820D03*
X115785900Y-81998820D03*
X115785900Y-79458820D03*
X115785900Y-76918820D03*
D19*
X115785900Y-74378820D03*
%TD*%
D20*
%TO.C,U4*%
X75895200Y-123131580D03*
X78435200Y-123131580D03*
D21*
X80975200Y-123131580D03*
%TD*%
D20*
%TO.C,U3*%
X79804260Y-100096320D03*
X77264260Y-100096320D03*
D21*
X74724260Y-100096320D03*
%TD*%
D20*
%TO.C,U2*%
X79121000Y-66626740D03*
X76581000Y-66626740D03*
D21*
X74041000Y-66626740D03*
%TD*%
D22*
%TO.C,U1*%
X103430940Y-72886600D03*
X103430940Y-68286600D03*
X103430940Y-70586600D03*
D23*
X109730940Y-70586600D03*
%TD*%
D12*
%TO.C,RV3*%
X95470980Y-112229900D03*
X92930980Y-112229900D03*
D13*
X90390980Y-112229900D03*
%TD*%
D12*
%TO.C,RV2*%
X105031540Y-132631180D03*
X107571540Y-132631180D03*
D13*
X110111540Y-132631180D03*
%TD*%
D24*
%TO.C,RV1*%
X90345260Y-106558080D03*
X92885260Y-106558080D03*
X95425260Y-106558080D03*
%TD*%
D12*
%TO.C,J6*%
X91028520Y-79420720D03*
X91028520Y-81960720D03*
X91028520Y-84500720D03*
X91028520Y-87040720D03*
X91028520Y-89580720D03*
X91028520Y-92120720D03*
D13*
X91028520Y-94660720D03*
%TD*%
D12*
%TO.C,J5*%
X140942060Y-131752340D03*
X140942060Y-129212340D03*
X140942060Y-126672340D03*
X140942060Y-124132340D03*
D13*
X140942060Y-121592340D03*
%TD*%
D12*
%TO.C,J4*%
X108866940Y-104096820D03*
X106326940Y-104096820D03*
X103786940Y-104096820D03*
D13*
X101246940Y-104096820D03*
%TD*%
D25*
%TO.C,J3*%
X125749060Y-126977140D03*
D26*
X120749060Y-126977140D03*
%TD*%
D25*
%TO.C,J2*%
X62613540Y-66592440D03*
D27*
X62613540Y-71592440D03*
%TD*%
D25*
%TO.C,J1*%
X62692280Y-99612440D03*
D27*
X62692280Y-104612440D03*
%TD*%
D28*
%TO.C,C8*%
X77372840Y-131721860D03*
D29*
X79872840Y-131721860D03*
%TD*%
D28*
%TO.C,C7*%
X81132680Y-109612440D03*
X81132680Y-104612440D03*
%TD*%
%TO.C,C6*%
X80424020Y-76434960D03*
X80424020Y-71434960D03*
%TD*%
%TO.C,C5*%
X99722940Y-73086600D03*
D29*
X99722940Y-70586600D03*
%TD*%
D28*
%TO.C,C4*%
X76819120Y-117457220D03*
D29*
X79319120Y-117457220D03*
%TD*%
D28*
%TO.C,C3*%
X77384920Y-104691180D03*
X72384920Y-104691180D03*
%TD*%
%TO.C,C2*%
X76676260Y-71513700D03*
X71676260Y-71513700D03*
%TD*%
%TO.C,C1*%
X99722940Y-64538220D03*
D29*
X99722940Y-67038220D03*
%TD*%
M02*
